<svg width="50" height="50" viewBox="0 0 50 50" fill="none" xmlns="http://www.w3.org/2000/svg">
<path d="M0 39.044H16.3182C21.738 39.0504 26.1299 43.4429 26.1364 48.8628V50H0V39.044ZM23.7773 47.7269C23.2013 44.0791 20.0825 41.3222 16.3188 41.317H2.27275V47.7269H23.7773ZM33.6819 39.044H50V50H23.8638V48.8634C23.8702 43.4429 28.2621 39.0504 33.6813 39.044H33.682H33.6819ZM47.7273 41.317H33.6819C29.9177 41.3221 26.7988 44.079 26.2284 47.684L26.2228 47.7268H47.7273L47.7273 41.317ZM9.76563e-05 10.8356H16.3183C21.7381 10.8421 26.13 15.2345 26.1365 20.6545V49.9999H0L9.76563e-05 10.8356ZM23.8638 47.7269V20.6552C23.8586 16.4895 20.4835 13.1139 16.3188 13.1088H2.27271V47.7269H23.8638ZM50 50H23.8638V20.6551C23.8638 15.232 28.2595 10.8357 33.6819 10.8357V13.1087C29.5147 13.1087 26.1365 16.4873 26.1365 20.6551V47.7269L47.7273 47.7268V13.1087H42.3638V10.8357H50V50ZM38.0228 33.2182L32.5454 27.7402V5.47128V5.45517C32.5454 3.94789 33.1531 2.58257 34.1367 1.59089L34.1364 1.59118C35.1174 0.608137 36.4735 0 37.9717 0C37.9816 0 37.9916 3.94887e-08 38.0016 9.77087e-05H38.0296C41.0482 0.00654388 43.4936 2.45223 43.5 5.47065V27.7469L38.0228 33.2182ZM34.8182 26.7992L38.0228 30.0042L41.2274 26.7992V5.47133C41.2248 3.7023 39.7916 2.26895 38.023 2.26632H37.9915C37.1155 2.26632 36.3228 2.62261 35.7502 3.19818L35.7501 3.19832C35.1743 3.77731 34.8184 4.57546 34.8184 5.45693V5.47206V5.47133L34.8182 26.7992Z" fill="white"/>
</svg>
