<svg width="50" height="50" viewBox="0 0 50 50" fill="none" xmlns="http://www.w3.org/2000/svg">
<path d="M23.5807 0C36.5978 0.0162667 47.1461 11.1995 47.1614 24.9984V25C47.1615 25.0273 47.1615 25.0598 47.1615 25.0922C47.1615 31.0072 45.1991 36.4362 41.927 40.6873L41.9601 40.6428L50 50H23.5807C10.5574 50 0 38.8072 0 25.0001C0 11.1929 10.5574 0.000102445 23.5807 0.000102445L23.5807 0ZM39.8311 45.238L35.8584 40.6166L37.3271 39.0094C40.6317 35.4156 42.6701 30.4987 42.6701 25.077C42.6701 25.0499 42.6701 25.0228 42.6699 24.9957V25C42.6699 13.8228 34.1235 4.7619 23.5808 4.7619C13.0382 4.7619 4.49161 13.8228 4.49161 25C4.49161 36.1771 13.0381 45.238 23.5807 45.238L39.8311 45.238ZM34.2482 27.3808H29.9812V22.619H34.2482L34.2482 27.3808ZM25.7142 27.3808H21.4472V22.619H25.7142V27.3808ZM17.1803 27.3808H12.9133V22.619H17.1803V27.3808Z" fill="white"/>
</svg>
