<svg width="50" height="50" viewBox="0 0 50 50" fill="none" xmlns="http://www.w3.org/2000/svg">
<path d="M10.4783 0H39.5217C45.3062 0.00635197 49.9938 4.80789 50 10.7324V31.9765C49.9938 37.9016 45.3063 42.7032 39.5224 42.7095H32.1174L25 50L17.8827 42.7095H10.4784C4.69385 42.7032 0.00615234 37.9016 0 31.9771V10.733C0.00634766 4.80799 4.69385 0.00640196 10.4777 4.9988e-05H10.4783L10.4783 0ZM39.5217 38.256C42.906 38.2522 45.6484 35.443 45.6521 31.9769V10.7331C45.6484 7.26655 42.906 4.45738 39.5221 4.45358H10.4782C7.09395 4.45738 4.35151 7.26655 4.34785 10.7327V31.9765C4.35151 35.4431 7.09395 38.2522 10.4779 38.256H19.6826L25 43.7026L30.3174 38.256L39.5217 38.256ZM27.1739 25.6525H22.8262V23.114C22.8284 21.3222 23.5383 19.7008 24.6848 18.5268L26.3979 16.772C26.7565 16.4043 26.9783 15.8964 26.9783 15.3355V15.3335V15.3336V14.964C26.9783 13.8448 26.0925 12.9376 25 12.9376C23.9075 12.9376 23.0218 13.8448 23.0218 14.9639L18.674 14.9416C18.674 11.3629 21.5062 8.46172 25 8.46172C28.4938 8.46172 31.3262 11.3629 31.3262 14.9416V15.3487C31.3262 17.1347 30.6182 18.7515 29.4742 19.9206L27.7544 21.6821C27.3967 22.047 27.175 22.5516 27.174 23.1093V23.1095L27.1739 25.6525ZM27.0652 32.0878H22.9349V27.6344H27.0652V32.0878Z" fill="white"/>
</svg>
