<svg width="50" height="50" viewBox="0 0 50 50" fill="none" xmlns="http://www.w3.org/2000/svg">
<path d="M37.7827 50H12.2182C8.51487 50 5.48931 47.5366 5.29133 44.4349L5.29064 44.4199L2.92415 8.48889H47.076L44.7199 44.4266C44.5185 47.5401 41.4953 50 37.7952 50H37.7821H37.7828L37.7827 50ZM7.07594 11.8223L9.21207 44.24C9.29513 45.5944 10.6087 46.666 12.2172 46.6666H37.78C39.386 46.6661 40.698 45.5982 40.7849 44.2531L40.7853 44.2466L42.9241 11.8222L7.07594 11.8223ZM50 11.8223H0V8.48894H50V11.8223ZM20 4.88943e-05H30C33.8439 0.00385748 36.9589 2.64799 36.9634 5.91077V11.8222H13.0366V5.91112C13.0411 2.64804 16.1559 0.00380858 19.9995 0H20L20 4.88943e-05ZM33.0366 8.48894V5.91116C33.0351 4.48802 31.6765 3.33466 30.0002 3.33339H20C18.3235 3.33461 16.9648 4.48798 16.9634 5.91102V8.48889L33.0366 8.48894ZM26.9633 41.9778H23.0366V16.5111H26.9633V41.9778ZM36.9634 41.9778H33.0366V16.5111H36.9634V41.9778ZM16.9634 41.9778H13.0366V16.5111H16.9634V41.9778Z" fill="white"/>
</svg>
