<svg width="70" height="70" viewBox="0 0 70 70" fill="none" xmlns="http://www.w3.org/2000/svg">
<path d="M0 23.1304H46.6666V70H0V23.1304ZM40.6059 29.2174H6.06063V63.9131H40.6059V29.2174ZM41.3787 68.5817L29.4091 49.5478L22.8757 60.0478L17.7242 56.8217L29.3727 38.1043L46.4938 65.3313L41.3787 68.5817ZM32.297 70H0.242305L5.6969 62.1692L16.0211 47.4113L32.297 70ZM11.8878 63.9131H20.4332L16.0968 57.8931L11.8878 63.9131ZM16.0604 34.6956C18.5708 34.6956 20.6059 36.7395 20.6059 39.2609C20.6059 41.7823 18.5708 43.8262 16.0604 43.8262C13.55 43.8262 11.515 41.7822 11.515 39.2609C11.515 36.7396 13.55 34.6956 16.0604 34.6956ZM6.06056 6.08699H0.303086V0H6.06056V6.08699ZM6.06056 17.6522H0.303086V11.5652H6.06056V17.6522ZM17.5757 6.08692H11.8182V0H17.5757V6.08692ZM29.3939 6.08692H23.3335V0H29.394L29.3939 6.08692ZM40.9091 6.08692H35.1516V0H40.9091V6.08692ZM52.4242 6.08692H46.6667V0H52.4242V6.08692ZM64.2424 6.08692H58.1819V0H64.2425L64.2424 6.08692ZM70 11.8696H64.2425V5.78266H70V11.8696ZM70 23.4348H64.2425V17.3478H70V23.4348ZM70 35H64.2425V28.9131H70V35ZM70 46.8696H64.2425V40.7827H70V46.8696ZM70 58.4348H64.2425V52.3478H70V58.4348ZM70 70H64.2425V63.9131H70V70ZM58.1818 70H52.4243V63.9131H58.1818V70Z" fill="#0A4A82"/>
</svg>
