<svg width="50" height="50" viewBox="0 0 50 50" fill="none" xmlns="http://www.w3.org/2000/svg">
<path d="M2.51093 33.9334H14.1267V50H2.51088L2.51093 33.9334ZM10.8515 37.2667H5.786V46.6667H10.8515V37.2667ZM35.8734 16.9779H47.4891V50H35.8734V16.9779ZM44.214 20.3112H39.1484V46.6667H44.214V20.3112ZM19.1921 25.4445H30.8079V50H19.1921V25.4445ZM27.5327 28.7778H22.4673V46.6667H27.5327V28.7778ZM50 50H0V46.6667H50L50 50ZM45.3929 12.2668H42.1179V3.33349H33.3405V0H45.3928L45.3929 12.2668ZM4.2009 22.4223H4.14631V19.089C17.5881 19.0648 29.754 13.5255 38.5801 4.5763L42.5982 0.489061L44.9127 2.84462L40.8953 6.93348C36.1995 11.7302 30.6 15.607 24.3785 18.2776L24.0394 18.4068C18.1931 20.9461 11.3913 22.4224 4.25075 22.4224C4.23328 22.4224 4.21573 22.4224 4.19826 22.4223H4.2009Z" fill="white"/>
</svg>
