<svg width="50" height="50" viewBox="0 0 50 50" fill="none" xmlns="http://www.w3.org/2000/svg">
<path d="M10.9651 50H8.69961V48.2118L2.15228 40.3993C0.811662 38.8138 0 36.7723 0 34.549V34.5395V34.54V18.7067C0 15.8122 2.44961 13.4658 5.47126 13.4658C8.49291 13.4658 10.9425 15.8123 10.9425 18.7067V33.2684H8.67698V18.7066C8.67698 17.0106 7.24175 15.6358 5.47121 15.6358C3.70067 15.6358 2.26555 17.0106 2.26555 18.7066V34.5425C2.26555 36.2486 2.88845 37.8154 3.92812 39.0456L3.91716 39.0321L10.9652 47.448L10.9651 50ZM26.1441 49.9132H23.8786V37.1744C23.8773 36.2631 23.4876 35.4392 22.8595 34.8463L22.8591 34.8459L16.7988 29.171C16.1802 28.5783 15.3255 28.2118 14.3814 28.2118H14.3367C12.4599 28.2118 10.9384 29.6693 10.9384 31.467C10.9384 32.3793 11.3302 33.204 11.9614 33.795L11.9621 33.7956L14.9526 36.6602L13.3508 38.1945L10.3717 35.3408C9.34071 34.3554 8.70282 32.9929 8.70282 31.4877C8.70282 28.4816 11.2469 26.0447 14.3851 26.0447C15.9519 26.0447 17.3706 26.6521 18.3985 27.6346H18.3984L24.4428 33.2943C25.4901 34.283 26.1396 35.6559 26.1419 37.1741V37.1746L26.1441 49.9132ZM41.3004 50H39.0349V47.4479L46.0806 39.0343C47.1108 37.817 47.7345 36.2493 47.7345 34.542V34.5283V34.5291V18.7066C47.7345 17.0166 46.3043 15.6467 44.5401 15.6467C42.7759 15.6467 41.3457 17.0166 41.3457 18.7066V33.2682H39.0803V18.7066C39.1044 15.8297 41.5306 13.5034 44.5307 13.4766H44.5446C47.5465 13.5009 49.9734 15.8248 50 18.6977V34.5333C50 36.7578 49.1875 38.8004 47.8312 40.4038L47.8455 40.3864L41.3004 48.1989V50ZM26.1441 49.9132H23.8785V37.1744C23.8813 35.6565 24.5308 34.2845 25.577 33.2971L25.5777 33.2964L31.6221 27.615C32.651 26.634 34.0699 26.0276 35.6366 26.0276C38.7797 26.0276 41.3276 28.4682 41.3276 31.479C41.3276 32.9889 40.6867 34.3554 39.6513 35.3427L39.6511 35.3429L36.6651 38.1944L35.0634 36.6602L38.0629 33.7869C38.6925 33.1929 39.0824 32.3675 39.0824 31.4549V31.4425V31.4431C39.0824 29.6453 37.5609 28.1878 35.6841 28.1878H35.6591C35.6502 28.1877 35.6397 28.1877 35.6291 28.1877C34.6852 28.1877 33.8308 28.5542 33.2125 29.147L27.1636 34.8329C26.5352 35.4261 26.1455 36.25 26.1441 37.1612V37.1614L26.1441 49.9132ZM26.1441 22.8732H23.8785V0H26.144L26.1441 22.8732ZM33.6883 8.70225H16.3344V6.53208H33.6883L33.6883 8.70225Z" fill="white"/>
</svg>
