<svg width="50" height="50" viewBox="0 0 50 50" fill="none" xmlns="http://www.w3.org/2000/svg">
<path d="M20.797 37.3478C24.2969 37.3478 27.1341 40.1801 27.1341 43.6739C27.1341 47.1677 24.297 50 20.7971 50C17.2972 50 14.46 47.1677 14.46 43.6739C14.46 40.1801 17.2972 37.3478 20.797 37.3478ZM20.797 45.6522C21.8915 45.6522 22.7788 44.7665 22.7788 43.674C22.7788 42.5814 21.8915 41.6957 20.797 41.6957C19.7026 41.6957 18.8153 42.5814 18.8153 43.674C18.8153 44.7665 19.7026 45.6522 20.797 45.6522ZM39.5034 37.3478C43.0033 37.3478 45.8406 40.1801 45.8406 43.6739C45.8406 47.1677 43.0033 50 39.5034 50C36.0036 50 33.1663 47.1677 33.1663 43.6739C33.1663 40.1801 36.0036 37.3478 39.5034 37.3478H39.5034ZM39.5034 45.6522C40.5979 45.6522 41.4851 44.7665 41.4851 43.674C41.4851 42.5814 40.5979 41.6957 39.5034 41.6957C38.4089 41.6957 37.5217 42.5814 37.5217 43.674C37.5217 44.7665 38.4089 45.6522 39.5034 45.6522ZM39.4599 41.6957H17.6813C13.6101 41.6957 10.3098 38.4011 10.3098 34.337C10.3098 30.9282 12.6316 28.0607 15.7827 27.2246L15.834 27.213L9.68207 7.1739C9.14549 5.52145 7.61744 4.34772 5.8147 4.34772H0V0H5.82556C9.56399 0 12.7316 2.43917 13.8185 5.81027L13.835 5.8696V5.89133L21.6442 31.3262H17.683C16.0172 31.3262 14.6669 32.6742 14.6669 34.3371C14.6669 36 16.0172 37.348 17.683 37.348H39.4599L39.4599 41.6957ZM45.3048 31.326H18.7063V26.9783H42.0208L45.6445 14.3261V12.6523H14.5688V8.30442H50V14.9348L45.3048 31.326Z" fill="white"/>
</svg>
