<svg width="50" height="50" viewBox="0 0 50 50" fill="none" xmlns="http://www.w3.org/2000/svg">
<path d="M25 23.2815C38.8004 23.2967 49.9834 33.5126 50 46.1182V50H0V46.1197C0.0165731 33.5127 11.1995 23.2967 24.9984 23.2816H25V23.2815ZM46.3591 46.6741V46.1198C46.3591 35.3435 36.7963 26.6077 25 26.6077C13.2036 26.6077 3.64085 35.3435 3.64085 46.1198V46.6741H46.3591ZM11.602 0H38.4223V14.368C38.4223 21.1277 32.4238 26.6075 25.0242 26.6075H25C17.6038 26.6 11.6102 21.1247 11.6019 14.3688V14.368L11.602 0ZM34.7816 3.32596H15.2427V14.3681C15.2497 19.2883 19.614 23.2753 24.9993 23.2816H25.0243C30.4131 23.2816 34.7816 19.2909 34.7816 14.3681L34.7816 3.32596ZM25.0534 11.8404L13.0631 9.64511L13.7913 6.38354L24.9563 8.4367L36.1214 5.76265L37.0389 8.97989L25.0534 11.8404ZM45.8495 3.32591H4.15048V0H45.8495V3.32591ZM29.5655 35.8315L26.9879 33.4811L35.2887 25.8758L37.8664 28.2261L29.5655 35.8315ZM20.4344 35.8315L12.1335 28.2261L14.7111 25.8758L23.0121 33.4811L20.4344 35.8315ZM25 31.7517C28.5657 31.7517 31.4563 34.3923 31.4563 37.6497C31.4563 40.9071 28.5657 43.5477 25 43.5477C21.4343 43.5477 18.5437 40.9071 18.5437 37.6497C18.5478 34.3938 21.436 31.7554 24.9996 31.7517H25ZM25 40.2217C26.555 40.2217 27.8155 39.0702 27.8155 37.6497C27.8155 36.2292 26.5551 35.0776 25.0001 35.0776C23.4451 35.0776 22.1845 36.2292 22.1845 37.6497C22.1859 39.0697 23.4457 40.2205 25 40.2217Z" fill="white"/>
</svg>
