<svg width="213" height="60" viewBox="0 0 213 60" fill="none" xmlns="http://www.w3.org/2000/svg">
<rect x="0.5" y="0.5" width="212" height="59" rx="14.5" fill="#0A4A82" stroke="white"/>
<path d="M22.912 21.176C25.392 21.176 27.296 21.616 28.624 22.496C29.952 23.36 30.616 24.784 30.616 26.768C30.616 28.768 29.944 30.216 28.6 31.112C27.256 31.992 25.336 32.432 22.84 32.432H21.664V38H17.92V21.608C18.736 21.448 19.6 21.336 20.512 21.272C21.424 21.208 22.224 21.176 22.912 21.176ZM23.152 24.368C22.88 24.368 22.608 24.376 22.336 24.392C22.08 24.408 21.856 24.424 21.664 24.44V29.24H22.84C24.136 29.24 25.112 29.064 25.768 28.712C26.424 28.36 26.752 27.704 26.752 26.744C26.752 26.28 26.664 25.896 26.488 25.592C26.328 25.288 26.088 25.048 25.768 24.872C25.464 24.68 25.088 24.552 24.64 24.488C24.192 24.408 23.696 24.368 23.152 24.368ZM39.8693 38.336C38.7013 38.336 37.6933 38.176 36.8453 37.856C35.9973 37.52 35.2933 37.064 34.7333 36.488C34.1893 35.896 33.7813 35.2 33.5093 34.4C33.2533 33.584 33.1253 32.688 33.1253 31.712V21.368H36.8693V31.4C36.8693 32.072 36.9413 32.648 37.0853 33.128C37.2453 33.592 37.4533 33.976 37.7093 34.28C37.9813 34.568 38.3013 34.776 38.6693 34.904C39.0533 35.032 39.4693 35.096 39.9173 35.096C40.8293 35.096 41.5653 34.816 42.1253 34.256C42.7013 33.696 42.9893 32.744 42.9893 31.4V21.368H46.7333V31.712C46.7333 32.688 46.5973 33.584 46.3253 34.4C46.0533 35.216 45.6373 35.92 45.0773 36.512C44.5173 37.088 43.8053 37.536 42.9413 37.856C42.0773 38.176 41.0533 38.336 39.8693 38.336ZM55.8781 38.216C54.9661 38.216 54.0541 38.184 53.1421 38.12C52.2461 38.072 51.3101 37.944 50.3341 37.736V21.608C51.1021 21.464 51.9421 21.36 52.8541 21.296C53.7661 21.216 54.6141 21.176 55.3981 21.176C56.4541 21.176 57.4221 21.256 58.3021 21.416C59.1981 21.56 59.9661 21.816 60.6061 22.184C61.2461 22.552 61.7421 23.04 62.0941 23.648C62.4621 24.24 62.6461 24.976 62.6461 25.856C62.6461 27.184 62.0061 28.232 60.7261 29C61.7821 29.4 62.5021 29.944 62.8861 30.632C63.2701 31.32 63.4621 32.096 63.4621 32.96C63.4621 34.704 62.8221 36.016 61.5421 36.896C60.2781 37.776 58.3901 38.216 55.8781 38.216ZM53.9821 30.752V35.048C54.2541 35.08 54.5501 35.104 54.8701 35.12C55.1901 35.136 55.5421 35.144 55.9261 35.144C57.0461 35.144 57.9501 34.984 58.6381 34.664C59.3261 34.344 59.6701 33.752 59.6701 32.888C59.6701 32.12 59.3821 31.576 58.8061 31.256C58.2301 30.92 57.4061 30.752 56.3341 30.752H53.9821ZM53.9821 27.896H55.8061C56.9581 27.896 57.7821 27.752 58.2781 27.464C58.7741 27.16 59.0221 26.68 59.0221 26.024C59.0221 25.352 58.7661 24.88 58.2541 24.608C57.7421 24.336 56.9901 24.2 55.9981 24.2C55.6781 24.2 55.3341 24.208 54.9661 24.224C54.5981 24.224 54.2701 24.24 53.9821 24.272V27.896ZM77.5711 34.784V38H66.4591V21.368H70.2031V34.784H77.5711ZM79.9825 21.368H83.7265V38H79.9825V21.368ZM95.1603 38.336C92.4563 38.336 90.3923 37.584 88.9683 36.08C87.5603 34.576 86.8563 32.44 86.8563 29.672C86.8563 28.296 87.0723 27.072 87.5043 26C87.9363 24.912 88.5283 24 89.2803 23.264C90.0323 22.512 90.9283 21.944 91.9683 21.56C93.0083 21.176 94.1363 20.984 95.3523 20.984C96.0563 20.984 96.6963 21.04 97.2723 21.152C97.8483 21.248 98.3523 21.368 98.7843 21.512C99.2163 21.64 99.5763 21.776 99.8643 21.92C100.152 22.064 100.36 22.176 100.488 22.256L99.4083 25.28C98.8963 25.008 98.2963 24.776 97.6083 24.584C96.9363 24.392 96.1683 24.296 95.3043 24.296C94.7283 24.296 94.1603 24.392 93.6003 24.584C93.0563 24.776 92.5683 25.088 92.1363 25.52C91.7203 25.936 91.3843 26.48 91.1283 27.152C90.8723 27.824 90.7443 28.64 90.7443 29.6C90.7443 30.368 90.8243 31.088 90.9843 31.76C91.1603 32.416 91.4323 32.984 91.8003 33.464C92.1843 33.944 92.6803 34.328 93.2883 34.616C93.8963 34.888 94.6323 35.024 95.4963 35.024C96.0403 35.024 96.5283 34.992 96.9603 34.928C97.3923 34.864 97.7763 34.792 98.1123 34.712C98.4483 34.616 98.7443 34.512 99.0003 34.4C99.2563 34.288 99.4883 34.184 99.6963 34.088L100.728 37.088C100.2 37.408 99.4563 37.696 98.4963 37.952C97.5363 38.208 96.4243 38.336 95.1603 38.336ZM114.954 38C114.778 37.424 114.578 36.832 114.354 36.224C114.146 35.616 113.938 35.008 113.73 34.4H107.25C107.042 35.008 106.826 35.616 106.602 36.224C106.394 36.832 106.202 37.424 106.026 38H102.138C102.762 36.208 103.354 34.552 103.914 33.032C104.474 31.512 105.018 30.08 105.546 28.736C106.09 27.392 106.618 26.12 107.13 24.92C107.658 23.704 108.202 22.52 108.762 21.368H112.338C112.882 22.52 113.418 23.704 113.946 24.92C114.474 26.12 115.002 27.392 115.53 28.736C116.074 30.08 116.626 31.512 117.186 33.032C117.746 34.552 118.338 36.208 118.962 38H114.954ZM110.466 25.136C110.386 25.376 110.266 25.704 110.106 26.12C109.946 26.536 109.762 27.016 109.554 27.56C109.346 28.104 109.114 28.704 108.858 29.36C108.618 30.016 108.37 30.704 108.114 31.424H112.842C112.586 30.704 112.338 30.016 112.098 29.36C111.858 28.704 111.626 28.104 111.402 27.56C111.194 27.016 111.01 26.536 110.85 26.12C110.69 25.704 110.562 25.376 110.466 25.136ZM125.987 21.176C128.483 21.176 130.395 21.624 131.723 22.52C133.051 23.4 133.715 24.776 133.715 26.648C133.715 27.816 133.443 28.768 132.899 29.504C132.371 30.224 131.603 30.792 130.595 31.208C130.931 31.624 131.283 32.104 131.651 32.648C132.019 33.176 132.379 33.736 132.731 34.328C133.099 34.904 133.451 35.512 133.787 36.152C134.123 36.776 134.435 37.392 134.723 38H130.523C130.219 37.456 129.907 36.904 129.587 36.344C129.283 35.784 128.963 35.24 128.627 34.712C128.307 34.184 127.987 33.688 127.667 33.224C127.347 32.744 127.027 32.312 126.707 31.928H124.859V38H121.115V21.608C121.931 21.448 122.771 21.336 123.635 21.272C124.515 21.208 125.299 21.176 125.987 21.176ZM126.203 24.368C125.931 24.368 125.683 24.376 125.459 24.392C125.251 24.408 125.051 24.424 124.859 24.44V28.952H125.915C127.323 28.952 128.331 28.776 128.939 28.424C129.547 28.072 129.851 27.472 129.851 26.624C129.851 25.808 129.539 25.232 128.915 24.896C128.307 24.544 127.403 24.368 126.203 24.368Z" fill="white"/>
<path d="M157.638 41.9582L159.193 34.2223L178.251 14.2777C179.009 13.4909 180.055 13.0032 181.21 13H181.219C183.534 13 185.411 14.9537 185.411 17.3637C185.411 18.5695 184.941 19.6611 184.182 20.4509L165.076 40.3395L157.638 41.9582ZM160.395 34.8973L159.341 40.1963L164.431 39.0877L183.257 19.4854C183.779 18.9425 184.101 18.1923 184.101 17.3636C184.101 15.7067 182.811 14.3636 181.219 14.3636H181.21C180.418 14.3652 179.7 14.6999 179.18 15.2405V15.2404L160.395 34.8973ZM186 43H156V41.6364H186V43ZM180.545 23.2737L175.541 18.0645L176.468 17.0991L181.472 22.3082L180.545 23.2737Z" fill="white"/>
</svg>
