<svg width="50" height="50" viewBox="0 0 50 50" fill="none" xmlns="http://www.w3.org/2000/svg">
<path d="M50 50H0V0H36.2911L50 13.7088V50ZM3.33335 46.6666H46.6667V15.0912L34.9089 3.33335H3.3335L3.33335 46.6666ZM14.8444 0H35.1556V13.9333H14.8444V0ZM31.8223 3.33335H18.1777V10.6H31.8223V3.33335ZM10.6 36.0667H39.3778V50H10.6V36.0667ZM36.0444 39.4H13.9333V46.6666H36.0444L36.0444 39.4ZM25 16.9778C29.4306 16.9778 33.0222 20.5694 33.0222 25C33.0222 29.4306 29.4306 33.0222 25 33.0222C20.5694 33.0222 16.9778 29.4306 16.9778 25C16.9829 20.5715 20.5715 16.9828 24.9995 16.9778H25ZM25 29.6889C27.5896 29.6889 29.6889 27.5896 29.6889 25C29.6889 22.4104 27.5896 20.3111 25 20.3111C22.4104 20.3111 20.3111 22.4104 20.3111 25C20.3137 27.5886 22.4114 29.6864 24.9998 29.6889H25Z" fill="white"/>
</svg>
